<svg id="Layer_1" enable-background="new 0 0 64 64" height="512" viewBox="0 0 64 64" width="512" xmlns="http://www.w3.org/2000/svg"><path d="m56.224 37.068c-.792-.396-1.572-.739-2.333-1.039.071-.658.109-1.33.109-2.018 0-1.51-.255-3.024-.732-4.535 1.012-.444 2.026-.954 2.992-1.54.236-.143.311-.451.168-.688-.146-.236-.454-.309-.688-.168-.897.546-1.847 1.024-2.799 1.443-.635-1.662-1.548-3.318-2.753-4.959 1.243-1.1 3.775-4.183 3.775-11.038 0-.27-.213-.49-.483-.5-.463-.015-11.149-.361-14.161 2.891-1.714-.554-3.42-.771-4.736-.898-.27-.017-.519.175-.546.45-.026.274.175.519.45.546 2.025.195 3.47.482 4.831.957 1.179.412 2.525 1.074 4 1.967.08.049.17.072.259.072.148 0 .296-.066.394-.191.243-.309.53-.605.903-.932.209-.182.23-.497.049-.705-.182-.211-.498-.231-.705-.049-.289.251-.533.489-.749.729-1.121-.66-2.142-1.171-3.1-1.559 1.508-1.253 4.726-1.851 7.725-2.114-.612.245-1.231.536-1.832.896-.236.142-.315.448-.172.686.093.156.259.243.429.243.088 0 .176-.022.257-.071 2.368-1.415 5.056-1.787 6.181-1.884-.137 6.823-2.894 9.385-3.753 10.016-.108.08-.18.199-.199.332s.017.268.098.375c1.296 1.699 2.272 3.411 2.923 5.124-3.888 1.561-7.554 2.144-7.602 2.151-.272.042-.46.298-.418.57.038.247.251.424.493.424.025 0 .052-.002.077-.006.201-.031 3.838-.606 7.768-2.183.429 1.387.656 2.771.656 4.148 0 .562-.036 1.11-.087 1.652-4.637-1.643-8.283-1.646-8.414-1.654-.276.001-.5.226-.499.501.001.276.225.499.5.499h.001.001c.072 0 3.717.024 8.27 1.671-1.358 8.67-9.349 14.331-20.772 14.331s-19.414-5.661-20.772-14.332c4.558-1.647 8.214-1.671 8.271-1.671h.001c.276 0 .5-.224.501-.499 0-.275-.223-.5-.499-.501-.204-.007-3.81.011-8.415 1.651-.051-.541-.087-1.087-.087-1.648 0-1.355.238-2.736.686-4.135 3.919 1.567 7.537 2.14 7.738 2.171.026.004.051.006.077.006.243 0 .456-.177.494-.424.042-.273-.145-.528-.418-.57-.048-.007-3.689-.585-7.561-2.134.651-1.671 1.612-3.366 2.886-5.074.087-.117.119-.268.086-.41-.033-.143-.127-.265-.256-.332-.037-.02-3.574-1.959-3.725-10.05 1.12.094 3.867.462 6.247 1.886.081.049.169.071.256.071.17 0 .336-.087.43-.243.142-.237.064-.544-.172-.686-.688-.411-1.403-.738-2.104-1.002 3.111.217 6.513.81 8.036 2.206-.938.38-1.943.885-3.098 1.567-.234-.261-.497-.494-.753-.722-.207-.183-.524-.165-.706.042-.183.207-.164.523.042.706.342.304.665.59.891.912.097.139.252.214.41.214.088 0 .178-.023.258-.072 1.545-.936 2.807-1.561 3.969-1.967 1.36-.476 2.806-.762 4.834-.957.275-.027.477-.271.45-.546-.026-.275-.273-.466-.545-.45-1.315.127-3.018.344-4.726.894-2.999-3.486-13.783-2.914-14.253-2.886-.266.016-.473.236-.473.5 0 7.387 2.674 10.266 3.792 11.146-1.172 1.633-2.064 3.259-2.694 4.869-.965-.423-1.929-.908-2.839-1.461-.236-.142-.543-.067-.687.168-.144.236-.068.544.167.688.975.593 2 1.106 3.022 1.553-.496 1.525-.761 3.035-.761 4.522 0 .687.038 1.36.109 2.017-.76.301-1.54.644-2.333 1.041-.247.124-.347.424-.224.671.089.174.265.276.448.276.075 0 .151-.017.223-.053.693-.347 1.377-.65 2.048-.92 1.517 9.064 9.853 14.968 21.729 14.968 11.877 0 20.212-5.904 21.728-14.968.671.27 1.355.573 2.048.92.071.036.148.053.224.053.183 0 .359-.101.447-.276.123-.248.024-.548-.223-.672z"/><path d="m28.106 33.325c-5.459.902-9.106 3.558-9.106 6.675 0 3.925 5.71 7 13 7s13-3.075 13-7c0-3.117-3.647-5.773-9.106-6.675-.177-.542-.581-.92-1.222-1.118-.678-.21-1.538-.211-2.522-.209h-.299c-.981.004-1.845-.001-2.522.209-.642.197-1.047.576-1.223 1.118zm15.894 6.675c0 3.252-5.495 6-12 6s-12-2.748-12-6c0-2.526 3.276-4.805 8.031-5.649.264 1.716 2.366 3.123 3.469 3.526v2.136c-1.948-.071-3.618-.534-4.808-.987-.025-.014-.052-.021-.079-.031-1.147-.444-1.831-.867-1.845-.876-.234-.146-.543-.077-.69.155-.147.233-.079.542.154.69.059.037.723.451 1.834.898.415 1.072 1.951 4.138 5.944 4.138 3.97 0 5.506-3.058 5.923-4.134 1.119-.448 1.79-.864 1.849-.901.233-.147.304-.456.156-.689-.145-.232-.453-.302-.689-.156-.014.009-.699.429-1.845.872-.034.011-.067.02-.098.038-1.193.452-2.863.913-4.806.983v-2.13c1.112-.391 3.211-1.778 3.469-3.532 4.755.844 8.031 3.123 8.031 5.649zm-12 1.026c1.776 0 3.343-.313 4.601-.695-.646 1.122-2.004 2.669-4.591 2.669-2.602 0-3.965-1.549-4.612-2.671 1.256.383 2.823.697 4.602.697zm-.292-8.029h.142.3c.879-.001 1.694-.001 2.226.164.455.141.624.367.624.836 0 1.521-2.531 2.944-2.98 3.001-.502-.066-3.02-1.477-3.02-3.001 0-.469.169-.695.624-.836.503-.156 1.266-.164 2.084-.164z"/><path d="m39.315 31.996c.059.023.122.035.185.035.062 0 .126-.012.185-.035.217-.087 5.315-2.172 5.315-6.996 0-1.654-1.346-3-3-3-1.042 0-1.962.534-2.5 1.344-.538-.81-1.458-1.344-2.5-1.344-1.654 0-3 1.346-3 3 0 4.824 5.098 6.909 5.315 6.996zm-2.315-8.996c1.102 0 2 .897 2 2 0 .276.224.5.5.5s.5-.224.5-.5c0-1.103.897-2 2-2 1.102 0 2 .897 2 2 0 3.664-3.632 5.579-4.501 5.984-.87-.403-4.499-2.309-4.499-5.984 0-1.103.897-2 2-2z"/><path d="m27 22c-1.043 0-1.962.534-2.5 1.344-.538-.81-1.458-1.344-2.5-1.344-1.654 0-3 1.346-3 3 0 4.824 5.098 6.909 5.315 6.996.06.023.122.035.185.035s.125-.012.185-.035c.217-.087 5.315-2.172 5.315-6.996 0-1.654-1.346-3-3-3zm-2.501 8.984c-.87-.403-4.499-2.309-4.499-5.984 0-1.103.897-2 2-2s2 .897 2 2c0 .276.224.5.5.5s.5-.224.5-.5c0-1.103.897-2 2-2s2 .897 2 2c0 3.664-3.631 5.579-4.501 5.984z"/><path d="m32 15.011c.168 0 .337.002.506.006h.011c.271 0 .494-.217.5-.488.007-.276-.212-.505-.488-.512-.177-.004-.353-.006-.528-.006l-.479.004c-.276.005-.496.233-.491.51.005.275.226.483.509.49z"/></svg>