<?xml version="1.0" encoding="iso-8859-1"?>
<!-- Generator: Adobe Illustrator 16.0.0, SVG Export Plug-In . SVG Version: 6.00 Build 0)  -->
<!DOCTYPE svg PUBLIC "-//W3C//DTD SVG 1.1//EN" "http://www.w3.org/Graphics/SVG/1.1/DTD/svg11.dtd">
<svg version="1.1" id="Capa_1" xmlns="http://www.w3.org/2000/svg" xmlns:xlink="http://www.w3.org/1999/xlink" x="0px" y="0px"
	 width="235.526px" height="235.525px" viewBox="0 0 235.526 235.525" style="enable-background:new 0 0 235.526 235.525;"
	 xml:space="preserve">
<g>
	<g>
		<path d="M194.756,50.84c-24.502-11.638-87.981-28.258-127.697-5.222C48.519,56.398,38.154,74.153,36.333,98.44
			c-0.142,1.587,0.613,3.104,1.917,4.009c0.165,0.114,11.507,7.72,26.689,7.72c2.803,0,5.763-0.376,8.787-0.99
			c0.196,3.697,0.398,16.889-6.134,28.243l-1.364,2.231c-3.188,5.122-8.384,13.546-6.705,23.328c-0.367-0.185-0.77-0.365-1.122-0.55
			c-4.49-2.324-8.728-4.508-12.876-5.722c-19.476-5.671-33.011-4.413-40.176,3.702c-11.377,12.888-1.138,37.285-0.686,38.319
			c0.702,1.639,2.311,2.721,4.09,2.721h134.215c1.803,0,3.442-1.109,4.132-2.781c1.566-3.835,2.776-7.646,3.771-11.441
			c0.4,0.125,0.693,0.461,1.106,0.461c0.016,0,0.06,0,0.084,0c15.894-0.328,28.633-12.543,28.372-27.238
			c-0.304-14.482-13.168-26.028-28.841-26.028c-0.185,0-0.421,0-0.629,0c-0.337,0.009-0.558,0.309-0.882,0.394
			c-1.791-6.917-4.084-13.357-6.601-19.19c13.493,4.539,34.761,10.793,49.833,10.793c7.036,0,12.719-1.378,15.508-4.969
			c3.267-4.176,2.124-9.145,0.309-13.247c15.232-0.443,23.824-4.408,25.94-12.167C239.503,79.956,210.509,58.33,194.756,50.84z
			 M171.557,160.63c0.16,9.529-8.251,17.372-18.831,17.978c1.979-12.287,1.375-24.149-0.705-35.166
			C162.777,143.281,171.349,151.141,171.557,160.63z M201.817,115.981c-3.778,4.807-33.426-0.621-63.626-11.66
			c-2.396-4.562-4.696-8.464-6.729-11.646c21.524,6.492,47.961,13.715,61.791,14.972c2.132,0.192,3.663,0.084,5.594,0.192
			C202.078,112.853,202.27,115.39,201.817,115.981z M194.079,98.777c-23.106-2.116-86.073-22.538-92.052-25.015
			c-2.216-0.998-4.867,0.13-5.803,2.406c-0.96,2.276,0.142,4.883,2.426,5.811c1.932,0.813,9.31,3.336,19.242,6.478
			c0.108,0.162,0.046,0.347,0.158,0.491c0.413,0.515,40.812,51.972,21.913,103.556H34.041c-2.112-3.695-2.825-6.86-1.978-9.346
			c1.2-3.546,5.198-5.173,5.236-5.189c2.286-0.882,3.424-3.45,2.569-5.734c-0.874-2.292-3.527-3.435-5.739-2.589
			c-0.808,0.305-7.876,3.158-10.425,10.516c-1.334,3.774-0.675,7.982,0.924,12.351H11.861c-2.437-6.953-5.35-19.933,0.192-26.2
			c4.652-5.238,15.352-5.599,31.021-1.066c3.316,0.974,6.989,2.873,11.25,5.065c8.833,4.568,19.761,10.235,33.452,10.235
			c0.353,0,0.721-0.008,1.104-0.008c2.458-0.061,4.404-2.108,4.366-4.553c-0.068-2.437-2.046-4.376-4.45-4.376
			c-0.03,0-0.072,0-0.118,0c-6.382,0.136-12.044-1.234-17.238-3.174c-6.268-8.673-2.637-16.034,2.393-24.081l1.517-2.492
			c9.042-15.733,7.283-33.885,7.221-34.677c-0.014-0.274-0.307-0.429-0.367-0.705c4.779-2.03,9.67-4.913,14.505-9.329
			c1.819-1.655,1.961-4.469,0.291-6.286c-1.655-1.841-4.488-1.947-6.298-0.284C71.606,108,51.95,99.867,45.496,96.387
			c2.126-19.781,10.904-34.253,26.06-43.064c32.998-19.196,90.764-8.049,119.381,5.558c19.035,9.033,37.649,27.247,35.574,34.807
			C225.453,97.489,216.388,100.801,194.079,98.777z"/>
		<path d="M77.916,146.399c-0.391,4.28,0.912,8.203,3.803,11.333c2.586,2.821,6.756,5.406,11.461,5.406
			c1.065,0,2.166-0.148,3.304-0.445c6.937-1.871,11.902-9.253,14.766-21.965c0.533-2.4-0.982-4.784-3.378-5.33
			c-2.437-0.48-4.757,0.982-5.334,3.375c-2.811,12.543-6.792,14.896-8.361,15.316c-2.3,0.645-4.821-1.219-5.911-2.393
			c-1.196-1.286-1.633-2.689-1.475-4.492c0.697-7.795,12.653-19.549,20.031-25.131c1.963-1.495,2.346-4.284,0.839-6.239
			c-1.499-1.962-4.308-2.369-6.217-0.866C99.159,116.702,79.196,132.157,77.916,146.399z"/>
		<path d="M59.585,79.91c-3.823,0-6.961,3.114-6.961,6.955c0,3.847,3.116,6.969,6.961,6.969c3.871,0,6.957-3.114,6.957-6.969
			C66.542,83.016,63.457,79.91,59.585,79.91z"/>
	</g>
</g>
<g>
</g>
<g>
</g>
<g>
</g>
<g>
</g>
<g>
</g>
<g>
</g>
<g>
</g>
<g>
</g>
<g>
</g>
<g>
</g>
<g>
</g>
<g>
</g>
<g>
</g>
<g>
</g>
<g>
</g>
</svg>
