<svg height="511pt" viewBox="0 0 511 511.99965" width="511pt" xmlns="http://www.w3.org/2000/svg"><path d="m374.113281 431.375c14.816407 0 26.867188-12.050781 26.867188-26.867188 0-14.8125-12.050781-26.863281-26.867188-26.863281-14.8125 0-26.863281 12.050781-26.863281 26.863281 0 14.816407 12.050781 26.867188 26.863281 26.867188zm0-38.734375c6.546875 0 11.867188 5.324219 11.867188 11.867187 0 6.546876-5.320313 11.867188-11.867188 11.867188-6.542969 0-11.867187-5.320312-11.867187-11.867188 0-6.542968 5.324218-11.867187 11.867187-11.867187zm0 0"/><path d="m331.480469 329.648438c-17.085938 0-30.984375 13.898437-30.984375 30.984374 0 17.085938 13.898437 30.984376 30.984375 30.984376 17.085937 0 30.984375-13.898438 30.984375-30.984376 0-17.085937-13.898438-30.984374-30.984375-30.984374zm0 46.96875c-8.816407 0-15.988281-7.171876-15.988281-15.984376 0-8.816406 7.171874-15.984374 15.988281-15.984374 8.8125 0 15.984375 7.167968 15.984375 15.984374 0 8.8125-7.171875 15.984376-15.984375 15.984376zm0 0"/><path d="m478.578125 61.917969c-2.929687-2.929688-7.675781-2.929688-10.605469 0-2.929687 2.929687-2.929687 7.675781 0 10.605469 30.707032 30.707031 29.445313 28.851562 29.445313 31.019531 0 2.09375.128906 1.445312-15.535157 17.105469-1.480468 1.484374-3.886718 1.488281-5.371093 0-91.265625-91.261719-85.867188-85.199219-85.867188-87.4375 0-.589844.144531-1.71875 1.113281-2.6875 15.679688-15.683594 15.019532-15.535157 17.105469-15.535157.589844 0 1.71875.144531 2.6875 1.113281l31.675781 31.675782c2.929688 2.925781 7.675782 2.925781 10.605469 0 2.929688-2.929688 2.929688-7.679688 0-10.605469l-31.675781-31.675781c-7.328125-7.328125-19.253906-7.328125-26.585938 0l-14.421874 14.421875c-7.328126 7.332031-7.328126 19.257812 0 26.585937l12.941406 12.941406-48.628906 48.628907-45.882813-45.882813c-7.332031-7.328125-19.257813-7.328125-26.585937 0l-8.394532 8.394532c-7.328125 7.332031-7.332031 19.257812-.003906 26.585937l12.839844 12.839844c-.128906.125-182.769532 182.769531-182.644532 182.640625-13.480468 13.742187-19.722656 29.910156-19.722656 47.195312 0 17.25 6.515625 33.4375 18.34375 45.769532l-9.214844 9.214843c-6.089843 6.09375-6.089843 16 0 22.089844l.339844.339844-81.839844 81.84375c-2.925781 2.929687-2.925781 7.675781 0 10.605469 2.933594 2.929687 7.679688 2.925781 10.605469 0l81.84375-81.84375.339844.34375c6.089844 6.085937 16 6.085937 22.089844 0l9.214843-9.21875c12.667969 12.144531 29.183594 18.355468 45.789063 18.355468 12.285156 0 24.601563-3.394531 35.429687-10.269531 17.796876 11.511719 41.414063-1.335937 41.414063-22.570313 0-4.765624-1.25-9.238281-3.4375-13.125l3.855469-3.851562c27.167968 15.566406 57.898437-14.9375 42.25-42.25 19.726562-19.726562 97.933594-97.933594 110.308594-110.308594l12.835937 12.839844c7.347656 7.34375 19.234375 7.34375 26.585937 0l8.394532-8.398438c7.34375-7.34375 7.347656-19.234374 0-26.582031l-45.882813-45.886719 48.628907-48.628906 12.941406 12.941406c7.328125 7.328126 19.257812 7.328126 26.585937 0l14.421875-14.421874c7.328125-7.328126 7.328125-19.257813 0-26.585938zm-190.539063 58.699219 22.441407 22.4375-82.417969 82.421874c-1.46875-1.101562-2.796875-2.425781-3.933594-3.949218-4.085937-5.488282-12.261718-5.484375-16.347656 0-6.164062 8.273437-17.332031 9.929687-25.472656 4.824218zm33.046876 33.042968 37.660156 37.660156-35.121094 35.121094c-2.144531-1.304687-3.976562-3.027344-5.386719-4.917968-4.09375-5.496094-12.269531-5.46875-16.34375 0-7.699219 10.335937-23.0625 10.269531-30.710937 0-4.117188-5.519532-12.304688-5.417969-16.34375 0-.847656 1.484374-4.097656 4.5625-7.765625 6.152343zm-214.117188 263.941406c-.238281.242188-.636719.242188-.875 0-8.613281-8.613281-2.652344-2.652343-11.289062-11.289062-.242188-.238281-.242188-.632812 0-.871094l9.191406-9.191406 12.164062 12.164062zm103.722656-13.09375c0-10.039062 11.675782-15.414062 19.324219-9.21875 2.65625 2.160157 4.410156 5.488282 4.410156 9.21875 0 15.457032-23.734375 15.941407-23.734375 0zm41.464844-34.65625c-9.496094-13.402343 5.128906-30.695312 19.898438-23.636718 5.582031 2.679687 9.125 8.277344 9.125 14.417968 0 15.355469-19.875 22.027344-29.023438 9.21875zm29.574219-35.421874c-27.25-17.363282-60.585938 14.75-42.742188 42.738281l-3.6875 3.6875c-22.195312-12.019531-47.902343 11.058593-37.222656 34.714843-19.75 11.367188-45.210937 8.339844-61.691406-8.140624l-31.40625-31.410157c-9.617188-9.613281-14.914063-22.460937-14.914063-36.171875 0-11.359375 3.648438-22.117187 10.363282-30.945312l5.53125 5.527344c2.929687 2.929687 7.679687 2.929687 10.605468 0 2.929688-2.929688 2.929688-7.675782 0-10.605469l-5.867187-5.867188 16.316406-16.316406 5.871094 5.867187c2.929687 2.929688 7.675781 2.925782 10.605469 0 2.925781-2.929687 2.925781-7.675781 0-10.605468l-5.867188-5.867188 16.316406-16.316406 5.867188 5.867188c2.929687 2.925781 7.675781 2.925781 10.605468 0 2.929688-2.929688 2.929688-7.679688 0-10.605469l-5.867187-5.871094 6.996094-6.992187c12.945312 10.074218 31.996093 9.605468 44.410156-2.265626 13.097656 12.539063 33.980469 12.519532 47.058594.003907 13.085937 12.523437 33.949219 12.535156 47.054687-.003907 13.082032 12.523438 33.945313 12.550782 47.054688.003907 4.464844 4.273437 9.878906 7.160156 15.652344 8.53125zm106.988281-106.992188c-8.210938 3.855469-17.925781 1.46875-23.421875-5.910156-2.65625-3.566406-7.65625-5.320313-12.351563-3.195313l16.40625-16.40625 22.441407 22.441407zm50.890625-4.003906c1.480469 1.484375 1.480469 3.894531 0 5.375l-8.394531 8.394531c-1.480469 1.480469-3.894532 1.480469-5.375 0-18.003906-18.003906-132.507813-132.507813-150.636719-150.636719-1.480469-1.480468-1.480469-3.890625 0-5.375l8.394531-8.394531c1.480469-1.480469 3.894532-1.480469 5.375 0 5.332032 5.335937 143.285156 143.289063 150.636719 150.636719zm-45.882813-67.09375-37.660156-37.660156 48.628906-48.628907 37.660157 37.660157zm0 0"/><path d="m289.621094 395.746094c-42.980469 8.589844-70.824219 71.058594-42.8125 103.246094 11.390625 13.089843 29.007812 16.515624 47.121094 9.171874 2.800781-1.136718 6.011718-1.132812 8.8125 0 25.910156 10.503907 47.792968-1.601562 55.457031-23.800781 1.351562-3.914062-.726563-8.1875-4.640625-9.535156-3.917969-1.355469-8.1875.726563-9.535156 4.640625-2.519532 7.292969-7.199219 12.808594-13.183594 15.527344-6.371094 2.894531-14.136719 2.644531-22.464844-.730469-6.472656-2.625-13.605469-2.625-20.078125 0-12.261719 4.972656-22.976563 3.152344-30.175781-5.117187-19.960938-22.9375 1.660156-71.714844 34.625-78.730469 15.175781-3.316407 34.082031 7.933593 44.941406 26.738281 2.285156 3.960938 4.144531 8.050781 5.519531 12.148438 1.320313 3.925781 5.570313 6.042968 9.496094 4.726562 3.925781-1.320312 6.042969-5.570312 4.722656-9.496094-1.691406-5.046875-3.964843-10.050781-6.75-14.878906-14.242187-24.671875-39.335937-38.605469-61.054687-33.910156zm0 0"/></svg>