<?xml version="1.0" encoding="iso-8859-1"?>
<!-- Generator: Adobe Illustrator 19.0.0, SVG Export Plug-In . SVG Version: 6.00 Build 0)  -->
<svg version="1.1" id="Capa_1" xmlns="http://www.w3.org/2000/svg" xmlns:xlink="http://www.w3.org/1999/xlink" x="0px" y="0px"
	 viewBox="0 0 512.001 512.001" style="enable-background:new 0 0 512.001 512.001;" xml:space="preserve">
<g>
	<g>
		<path d="M210.836,343.964l-35.601-15.973v-71.771c0-16.218-13.194-29.412-29.412-29.412c-0.134,0-0.641,0.015-1.016,0.027
			l-0.001-0.009c-2.935,0.1-5.753,0.621-8.396,1.503v-30.641c0-16.218-13.194-29.412-29.412-29.412
			c-0.134,0-0.641,0.015-1.016,0.027l-0.001-0.009c-2.935,0.1-5.752,0.621-8.396,1.503v-0.933c0-16.218-13.194-29.412-29.412-29.412
			c-0.155,0-1.011,0.017-1.017,0.018c-11.371,0.388-20.982,7.085-25.548,16.686c-3.322-1.546-6.984-2.481-10.852-2.663
			c-8.334-0.401-16.839,2.724-22.721,8.336c-5.027,4.796-7.796,11.05-7.796,17.609c0,23.01-0.144,78.22-0.23,109.082
			c-0.052,18.682,4.78,37.159,13.972,53.432l30.406,53.824c7.159,12.676,18.376,22.952,31.624,28.986l37.972,21.681v55.556
			c0,5.523,4.478,10,10,10H230.75c5.522,0,10-4.477,10-10V388.978C240.75,369.251,229.013,351.599,210.836,343.964z M136.41,256.221
			c0-5.087,3.967-9.211,9.04-9.405l0.373-0.008c5.19,0,9.413,4.223,9.413,9.413v62.798l-18.826-8.446V256.221z M97.585,197.688
			c-0.001-5.087,3.966-9.211,9.039-9.405l0.374-0.008c5.19,0,9.413,4.223,9.413,9.413v94.828l-18.825-19.023V197.688z
			 M58.759,168.864c0-5.079,3.954-9.196,9.028-9.405l0.385-0.008c5.191,0,9.413,4.223,9.413,9.413v90.157
			c-6.143-1.75-12.721-1.584-18.825,0.546V168.864z M133.982,492.001v-51.362c0-3.59-1.924-6.904-5.041-8.684l-43.427-24.796
			c-0.287-0.164-0.582-0.313-0.884-0.448c-9.569-4.271-17.677-11.647-22.83-20.77l-30.406-53.824
			c-7.49-13.261-11.428-28.317-11.386-43.541c0.086-30.872,0.229-86.103,0.229-109.137c0-1.068,0.539-2.124,1.602-3.139
			c1.943-1.855,5.068-2.965,7.976-2.829c4.932,0.232,8.944,4.696,8.944,9.951v97.466c-0.319,1.158-0.573,2.34-0.761,3.542
			c-1.519,9.737,1.674,19.735,8.542,26.78l40.581,43.682c3.759,4.046,10.086,4.278,14.133,0.52
			c4.046-3.759,4.278-10.086,0.52-14.132c0,0-40.805-43.92-40.872-43.99c-2.561-2.6-3.706-6.164-3.142-9.781
			c0.358-2.302,1.399-4.405,3.025-6.109c0.307-0.279,0.911-0.826,1.227-1.111c4.568-3.582,11.042-3.173,15.157,1.007l91.354,92.314
			c1.956,1.976,4.531,2.966,7.108,2.966c2.542,0,5.085-0.963,7.034-2.892c3.926-3.885,3.959-10.216,0.074-14.142l-11.149-11.266
			l31.174,13.987c0.082,0.037,0.165,0.072,0.248,0.107c10.775,4.49,17.737,14.934,17.737,26.607v103.022H133.982z"/>
	</g>
</g>
<g>
	<g>
		<path d="M127.943,371.634c-0.13-0.63-0.319-1.26-0.569-1.87c-0.25-0.6-0.561-1.18-0.92-1.72c-0.36-0.55-0.78-1.06-1.24-1.52
			c-0.461-0.46-0.981-0.88-1.521-1.25c-0.54-0.36-1.129-0.67-1.729-0.92s-1.23-0.44-1.87-0.57c-1.29-0.26-2.62-0.26-3.91,0
			c-0.64,0.13-1.26,0.32-1.87,0.57c-0.6,0.25-1.18,0.56-1.72,0.92c-0.55,0.37-1.059,0.79-1.53,1.25c-0.46,0.46-0.87,0.97-1.24,1.52
			c-0.359,0.54-0.67,1.12-0.92,1.72c-0.25,0.61-0.439,1.24-0.569,1.87c-0.13,0.65-0.2,1.31-0.2,1.96c0,2.63,1.071,5.2,2.93,7.07
			c0.47,0.46,0.98,0.88,1.53,1.24c0.54,0.36,1.12,0.67,1.72,0.92c0.61,0.25,1.23,0.44,1.87,0.57c0.65,0.13,1.3,0.2,1.96,0.2
			c0.65,0,1.311-0.07,1.949-0.2c0.639-0.13,1.269-0.32,1.87-0.57c0.599-0.25,1.189-0.56,1.729-0.92c0.54-0.36,1.061-0.78,1.521-1.24
			s0.88-0.97,1.24-1.52c0.359-0.54,0.67-1.13,0.92-1.73c0.25-0.6,0.439-1.23,0.569-1.87c0.13-0.64,0.2-1.3,0.2-1.95
			C128.143,372.944,128.073,372.284,127.943,371.634z"/>
	</g>
</g>
<g>
	<g>
		<path d="M511.765,179.438c0-6.559-2.769-12.813-7.796-17.609c-5.883-5.612-14.395-8.739-22.721-8.336
			c-3.868,0.182-7.53,1.117-10.852,2.663c-4.565-9.602-14.174-16.298-25.534-16.686c-0.021-0.001-0.876-0.018-1.031-0.018
			c-16.219,0-29.412,13.194-29.412,29.412v0.933c-2.644-0.882-5.462-1.403-8.397-1.503l-0.001,0.009
			c-0.375-0.012-0.882-0.027-1.016-0.027c-16.219,0-29.412,13.195-29.412,29.412v30.641c-2.644-0.882-5.462-1.403-8.397-1.503
			l-0.001,0.009c-0.375-0.012-0.882-0.027-1.016-0.027c-16.219,0-29.412,13.195-29.412,29.412v71.771l-35.602,15.973
			c-18.177,7.635-29.914,25.287-29.914,45.014v113.023c0,5.523,4.478,10,10,10h106.768c5.522,0,10-4.477,10-10v-55.556
			l37.972-21.681c13.248-6.034,24.465-16.312,31.624-28.986l30.406-53.825c9.191-16.273,14.024-34.749,13.972-53.432
			C511.908,257.658,511.765,202.448,511.765,179.438z M434.418,168.864c0-5.19,4.223-9.413,9.346-9.413l0.46,0.009
			c5.063,0.203,9.02,4.323,9.02,9.404v90.704c-6.106-2.131-12.685-2.297-18.825-0.549V168.864z M404.939,188.275l0.445,0.008
			c5.07,0.197,9.035,4.319,9.035,9.405v75.805l-18.825,19.023v-94.827h0C395.593,192.499,399.816,188.276,404.939,188.275z
			 M366.114,246.807l0.444,0.008c5.07,0.196,9.036,4.319,9.036,9.405v54.352l-18.825,8.446v-62.797h0
			C356.769,251.031,360.992,246.808,366.114,246.807z M480.61,332.115l-30.406,53.825c-5.153,9.124-13.262,16.5-22.83,20.77
			c-0.302,0.135-0.597,0.284-0.884,0.448l-43.427,24.796c-3.117,1.78-5.041,5.094-5.041,8.684v51.362h-86.768V388.978
			c0-11.674,6.963-22.117,17.737-26.607c0.083-0.035,0.166-0.07,0.248-0.107l31.174-13.986l-11.148,11.266
			c-3.885,3.926-3.852,10.257,0.074,14.142c1.949,1.929,4.492,2.892,7.034,2.892c2.576,0,5.152-0.99,7.108-2.966l91.369-92.331
			c4.102-4.164,10.572-4.574,15.142-0.99c0.317,0.287,0.926,0.836,1.23,1.115c1.618,1.69,2.662,3.797,3.022,6.107
			c0.564,3.615-0.581,7.18-3.142,9.779c-0.067,0.069-40.872,43.99-40.872,43.99c-3.759,4.046-3.526,10.374,0.52,14.132
			c4.046,3.758,10.374,3.526,14.133-0.52l40.581-43.682c6.868-7.045,10.06-17.043,8.542-26.778
			c-0.187-1.202-0.442-2.385-0.761-3.543v-97.467c0-5.255,4.013-9.719,8.944-9.951c2.888-0.138,6.031,0.974,7.977,2.829
			c1.063,1.014,1.602,2.07,1.602,3.139c0,23.034,0.144,78.265,0.229,109.137C492.037,303.798,488.1,318.855,480.61,332.115z"/>
	</g>
</g>
<g>
	<g>
		<path d="M403.668,371.634c-0.13-0.63-0.32-1.26-0.57-1.87c-0.25-0.6-0.56-1.18-0.92-1.72c-0.37-0.55-0.78-1.06-1.25-1.52
			c-0.46-0.46-0.97-0.88-1.52-1.25c-0.54-0.36-1.12-0.67-1.721-0.92c-0.609-0.25-1.239-0.44-1.87-0.57
			c-1.289-0.26-2.619-0.26-3.909,0c-0.641,0.13-1.27,0.32-1.87,0.57s-1.19,0.56-1.73,0.92c-0.55,0.37-1.06,0.79-1.52,1.25
			c-0.46,0.46-0.88,0.97-1.24,1.52c-0.36,0.54-0.67,1.12-0.92,1.72c-0.25,0.61-0.44,1.24-0.57,1.87c-0.13,0.65-0.2,1.31-0.2,1.96
			c0,0.65,0.07,1.31,0.2,1.95c0.13,0.64,0.32,1.27,0.57,1.87c0.25,0.6,0.56,1.19,0.92,1.73c0.36,0.55,0.78,1.06,1.24,1.52
			c0.46,0.46,0.97,0.88,1.52,1.24c0.54,0.36,1.129,0.67,1.73,0.92c0.599,0.25,1.229,0.44,1.87,0.57c0.639,0.13,1.3,0.2,1.949,0.2
			c0.65,0,1.31-0.07,1.96-0.2c0.631-0.13,1.261-0.32,1.87-0.57c0.601-0.25,1.181-0.56,1.721-0.92c0.55-0.36,1.06-0.78,1.52-1.24
			c0.47-0.46,0.88-0.97,1.25-1.52c0.36-0.54,0.67-1.13,0.92-1.73c0.25-0.6,0.44-1.23,0.57-1.87c0.13-0.64,0.19-1.3,0.19-1.95
			C403.858,372.944,403.798,372.284,403.668,371.634z"/>
	</g>
</g>
<g>
	<g>
		<path d="M407.469,74.871c-5.607-25.942-19.527-47.612-39.197-61.017C349.205,0.859,326.759-3.095,303.358,2.42
			c-20.214,4.764-30.864,16.084-45.606,31.749c-0.579,0.615-1.162,1.235-1.751,1.86c-0.589-0.625-1.172-1.245-1.751-1.86
			C239.51,18.503,228.86,7.184,208.646,2.42c-23.399-5.516-45.846-1.561-64.915,11.433c-19.669,13.406-33.59,35.075-39.197,61.017
			c-5.683,26.292-1.992,54.414,10.395,79.185c10.122,20.243,36.142,45.404,77.339,74.782c16.063,11.455,30.954,21.035,40.618,27.055
			c19.45,12.116,20.3,12.116,23.116,12.116c2.817,0,3.666,0,23.116-12.116c9.664-6.02,24.555-15.601,40.618-27.055
			c41.198-29.378,67.217-54.538,77.339-74.781C409.461,129.285,413.153,101.163,407.469,74.871z M379.188,145.112
			c-18.233,36.465-101.643,88.98-123.185,101.478c-21.542-12.499-104.953-65.013-123.185-101.479
			c-10.357-20.712-13.459-44.157-8.734-66.015c4.52-20.909,15.498-38.211,30.912-48.716c10.072-6.865,21.46-10.352,33.529-10.352
			c5.073,0,10.268,0.617,15.533,1.858c14.359,3.383,21.913,11.412,35.628,25.987c2.859,3.038,5.814,6.179,9.142,9.607
			c1.883,1.939,4.472,3.034,7.175,3.034c2.703,0,5.292-1.095,7.175-3.034c3.328-3.427,6.284-6.569,9.142-9.607
			c13.715-14.575,21.269-22.603,35.628-25.987c17.791-4.193,34.758-1.256,49.064,8.494c15.415,10.506,26.392,27.807,30.912,48.717
			C392.647,100.955,389.545,124.4,379.188,145.112z"/>
	</g>
</g>
<g>
	<g>
		<path d="M322.494,106.318c-3.662-5.511-9.364-9.119-16.054-10.16c-0.213-0.033-0.427-0.064-0.64-0.091
			c0.208-1.519,0.316-3.073,0.316-4.653c0-17.508-13.193-31.753-29.41-31.753c-8.067,0-15.386,3.523-20.705,9.219
			c-5.319-5.696-12.636-9.219-20.701-9.219c-16.218,0-29.41,14.245-29.41,31.753c0,1.58,0.108,3.134,0.315,4.652
			c-0.214,0.028-0.429,0.059-0.644,0.092c-6.692,1.042-12.395,4.652-16.056,10.165c-3.863,5.817-5.002,13-3.206,20.221
			c1.957,7.884,7.113,14.256,13.687,17.882c-3.708,6.367-5.774,13.711-5.774,21.382c0,23.463,19.091,42.553,42.559,42.553h0.146
			c6.71,0,13.2-1.55,19.086-4.525c5.887,2.975,12.377,4.525,19.086,4.525h0.146c23.467,0,42.559-19.088,42.559-42.553
			c0-7.674-2.066-15.018-5.775-21.385c6.573-3.626,11.73-9.997,13.691-17.88C327.501,119.317,326.36,112.133,322.494,106.318z
			 M276.705,79.66c5.102,0,9.411,5.383,9.411,11.754s-4.31,11.753-9.411,11.753c-0.646,0-1.279-0.086-1.892-0.25
			c-0.773-0.377-1.56-0.731-2.358-1.061c-3.039-1.976-5.169-5.965-5.169-10.442C267.287,85.043,271.6,79.66,276.705,79.66z
			 M235.298,79.66c5.102,0,9.413,5.383,9.413,11.754c0,4.479-2.131,8.47-5.17,10.444c-0.795,0.329-1.579,0.682-2.35,1.058
			c-0.614,0.164-1.247,0.251-1.894,0.251c-5.102,0-9.411-5.382-9.411-11.753C225.887,85.043,230.197,79.66,235.298,79.66z
			 M205.706,121.723c-0.417-1.687-0.251-3.266,0.458-4.334c0.532-0.802,1.364-1.296,2.48-1.47c0.273-0.043,0.548-0.064,0.822-0.064
			c3.021,0,5.987,2.53,6.852,6.006c0.419,1.688,0.253,3.268-0.456,4.335c-0.532,0.801-1.366,1.295-2.482,1.469
			C210.081,128.182,206.648,125.514,205.706,121.723z M275.255,188.363l-0.101-0.001c-0.047,0-0.101,0-0.154,0.001
			c-4.744-0.019-9.277-1.502-13.113-4.295c-3.508-2.554-8.264-2.554-11.771,0c-3.834,2.791-8.363,4.275-13.105,4.295
			c-0.099-0.002-0.197-0.002-0.319,0c-12.404-0.042-22.481-10.144-22.481-22.553c0-8.965,5.332-17.084,13.585-20.688
			c3.116-1.36,5.327-4.21,5.87-7.566c1.169-7.219,5.836-13.251,12.073-16.456c0.653-0.269,1.296-0.562,1.926-0.879
			c2.553-1.024,5.316-1.591,8.174-1.603c0.101,0.002,0.2,0.002,0.319,0c2.855,0.011,5.615,0.575,8.165,1.596
			c0.639,0.322,1.291,0.619,1.955,0.892c6.231,3.206,10.893,9.236,12.061,16.45c0.543,3.356,2.754,6.206,5.87,7.566
			c8.253,3.603,13.585,11.724,13.585,20.688C297.792,178.239,287.685,188.352,275.255,188.363z M306.298,121.723
			c-0.943,3.791-4.391,6.454-7.681,5.942c-1.114-0.174-1.948-0.668-2.48-1.469c-0.707-1.065-0.872-2.643-0.45-4.336
			c0.862-3.476,3.825-6.005,6.847-6.005c0.274,0,0.549,0.021,0.822,0.064c0.003,0,0.005,0.001,0.008,0.001
			c1.108,0.173,1.94,0.667,2.474,1.469C306.548,118.458,306.715,120.04,306.298,121.723z"/>
	</g>
</g>
<g>
</g>
<g>
</g>
<g>
</g>
<g>
</g>
<g>
</g>
<g>
</g>
<g>
</g>
<g>
</g>
<g>
</g>
<g>
</g>
<g>
</g>
<g>
</g>
<g>
</g>
<g>
</g>
<g>
</g>
</svg>
